<?xml version="1.0" standalone="no"?>
<!DOCTYPE svg PUBLIC "-//W3C//DTD SVG 20010904//EN"
 "http://www.w3.org/TR/2001/REC-SVG-20010904/DTD/svg10.dtd">
<svg version="1.0" xmlns="http://www.w3.org/2000/svg"
 width="700.000000pt" height="700.000000pt" viewBox="0 0 700.000000 700.000000"
 preserveAspectRatio="xMidYMid meet">
<metadata>
Created by potrace 1.11, written by Peter Selinger 2001-2013
</metadata>
<g transform="translate(0.000000,700.000000) scale(0.100000,-0.100000)"
fill="#000000" stroke="none">
<path d="M3195 6849 c-578 -54 -1132 -256 -1610 -586 -239 -165 -525 -430
-699 -648 -397 -498 -634 -1052 -721 -1685 -23 -163 -31 -525 -16 -701 58
-680 311 -1313 738 -1844 113 -141 359 -387 490 -492 303 -241 601 -412 949
-542 619 -232 1321 -275 1958 -120 836 204 1540 697 2014 1409 371 557 562
1189 562 1860 0 773 -258 1505 -746 2115 -112 140 -357 385 -499 498 -536 429
-1148 675 -1830 737 -128 12 -460 11 -590 -1z m745 -48 c975 -131 1837 -681
2367 -1510 274 -428 440 -897 505 -1431 17 -137 17 -583 0 -720 -85 -692 -349
-1301 -783 -1805 -918 -1066 -2381 -1443 -3699 -953 -886 329 -1618 1061
-1948 1948 -538 1444 -28 3052 1243 3922 480 329 1033 522 1640 572 124 10
535 -4 675 -23z"/>
</g>
</svg>
